<svg id="Layer_1" data-name="Layer 1" xmlns="http://www.w3.org/2000/svg" viewBox="0 0 39.39 41.57"><defs><style>.cls-1{fill:#8aafd0;}.cls-2{fill:#2d7061;}</style></defs><title>logo-icon</title><ellipse className="cls-1" cx="13.55" cy="7.05" rx="5.92" ry="5.23"/><ellipse className="cls-2" cx="28.23" cy="5.27" rx="5.92" ry="5.23"/><path className="cls-1" d="M17.42,31.51s-4.25,8.62-2.22,13.27c0,0-5.19-6.17-2.47-16.56a14.32,14.32,0,0,1,.69-2.46s0-1.43-.71-0.27c0,0-2.38,4.43-5.47,5.17a14.08,14.08,0,0,1-2.6.67s-1.43,0,0-.59a13.75,13.75,0,0,0,4.55-6.45,10.93,10.93,0,0,1,6.13-6.87c5.07-2.27,7.07.15,7.79,0.25,0,0,2.62,2.69,2.52,4,0,0-.72,2.13-1.61,2.62,0,0-2.1-2.5-2.37-.84a4,4,0,0,0,1.12,2.17s2,4.75,1.66,9c0,0,0,7.07-1.41,8.7,0,0-2.08,3-1.41,1,0,0,1.11-4.6-.27-7.86C21.35,36.52,19.67,31.39,17.42,31.51Z" transform="translate(-4 -3.85)"/><path className="cls-2" d="M21.52,26.69S25.3,24.05,26,21c0,0,2.18-5.51,5.81-6,0,0,3.16-1.75,6.55,2.4,0,0,2.34,3.4,3.42,5.43,0,0,4.75,7.21-1.92,1.56,0,0-1.7-3.68-3-1.24,0,0-.15,5.07,3.14,8.25,0,0,.79.49-0.57,0.49l-1.38.2a11.62,11.62,0,0,1-.8,12.09s-1.45,2.15-.83-0.36c0,0,.85-9.29-1.94-11.31,0,0-2.2-.63-2.69.36,0,0-2,4.2-1.31,11.22,0,0,1,3.56-.91-1.09,0,0-3.16-5.37-.84-10.25,0,0-.94-0.43-3.71.11,0,0-1,.5.3-0.84,0,0,3.11-3.58,3.71-6.31,0,0,1-2.78-1.78-.46,0,0-3.06,2.32-5.68,2C21.52,27.33,20.86,27.19,21.52,26.69Z" transform="translate(-4 -3.85)"/><path className="cls-2" d="M13.17,18.67a7.33,7.33,0,0,1,.24,6.81s-0.83,3.3-.92,3.73l0.59,0.64,4.4-.11,0.61-1,0.65,1,4.33-.12,0.81-.67-1.11-3.33a3.43,3.43,0,0,1-1.14-2.15A0.58,0.58,0,0,1,22,22.93s-0.73-3.87,1.12-5.27L23,17.73a6.56,6.56,0,0,0-2.14-1.07s-1.72,2.06-2.46,3L16,17.06A28.44,28.44,0,0,0,13.17,18.67Z" transform="translate(-4 -3.85)"/><circle className="cls-1" cx="14.35" cy="19.1" r="0.57"/><circle className="cls-1" cx="14.35" cy="22.04" r="0.57"/><path className="cls-1" d="M26.35,8.52s2.87,0.33,6.09-2.41a12.31,12.31,0,0,0,5.68,2.41s-0.35-4.24-5.68-4.67C32.44,3.85,27.36,3.66,26.35,8.52Z" transform="translate(-4 -3.85)"/><path className="cls-1" d="M28.46,13.14A3,3,0,0,0,30,15.4a1.37,1.37,0,0,1,.33,1.14,3.14,3.14,0,0,1-.27.69,1.67,1.67,0,0,0-.35,1.71,3,3,0,0,0,1,.79l0.11-.32a1.1,1.1,0,0,1-.8-1.24s0.22-.45.51-1a1.78,1.78,0,0,0,0-1.58,1.43,1.43,0,0,0-.5-0.74,2,2,0,0,1-.35-1Z" transform="translate(-4 -3.85)"/><path className="cls-1" d="M29.06,14.56a2.35,2.35,0,0,0,1.09,2.29,1.14,1.14,0,0,1,.39,1.52s-0.39.4-.42,0.45L30,18.93l0.17,0.23A1.81,1.81,0,0,0,31,17.25a1.9,1.9,0,0,0-.72-0.84A2.44,2.44,0,0,1,29.56,15Z" transform="translate(-4 -3.85)"/><path className="cls-1" d="M30.14,14a5.15,5.15,0,0,1-.37,1.75,1.41,1.41,0,0,0-.44,1.49,3,3,0,0,0,1,.92,1.24,1.24,0,0,1,.29,1.54l-0.23.22s-0.17.3,0.19,0.23A1.44,1.44,0,0,0,31,18.52a6,6,0,0,0-1-1.18s-0.71-.31,0-1.26a7.23,7.23,0,0,0,1.12-1.82Z" transform="translate(-4 -3.85)"/><path className="cls-1" d="M29.57,20a0.37,0.37,0,0,1,.52.08l0,0a0.75,0.75,0,0,0,.83,0s0.61-.39.69,0c0,0,0,1.17-.42.88a0.8,0.8,0,0,0-1,0s-0.54.35-.63-0.18A1.78,1.78,0,0,1,29.57,20Z" transform="translate(-4 -3.85)"/><path className="cls-2" d="M29.77,20.54s-0.06-.35.17-0.31a1.22,1.22,0,0,1,.4.17s0.09,0.24-.32.32A0.21,0.21,0,0,1,29.77,20.54Z" transform="translate(-4 -3.85)"/><path className="cls-2" d="M31.37,20.43s0-.23-0.13-0.21a0.71,0.71,0,0,0-.36.1s-0.1.24,0.33,0.32A0.19,0.19,0,0,0,31.37,20.43Z" transform="translate(-4 -3.85)"/><path className="cls-2" d="M30.5,20.63a0.23,0.23,0,0,1-.09-0.28,0.2,0.2,0,0,1,.28-0.05l0.05,0.05S30.77,20.74,30.5,20.63Z" transform="translate(-4 -3.85)"/><path className="cls-1" d="M30.49,20.78s-0.17.1,0,.46a0.6,0.6,0,0,0,.08.42,1.52,1.52,0,0,1,.11.31,2,2,0,0,1,.09-0.33h0a0.27,0.27,0,0,0,0-.26,0.24,0.24,0,0,0,0-.23,1.71,1.71,0,0,0,0-.26A0.32,0.32,0,0,0,30.49,20.78Z" transform="translate(-4 -3.85)"/></svg>